<?xml version="1.0" encoding="utf-8"?>
<!-- Generator: Adobe Illustrator 27.6.1, SVG Export Plug-In . SVG Version: 6.00 Build 0)  -->
<svg version="1.1" id="Layer_1" xmlns="http://www.w3.org/2000/svg" xmlns:xlink="http://www.w3.org/1999/xlink" x="0px" y="0px"
	 viewBox="0 0 200 200" style="enable-background:new 0 0 200 200;" xml:space="preserve">
<g>
	<path d="M84.7,108.42l-1.46-1.45c-0.74-0.75-1.53-1.11-2.34-1.06c-0.82,0.04-1.6,0.44-2.35,1.19l-5.29,5.29l6.01,6.02l5.3-5.29
		c0.75-0.75,1.14-1.53,1.19-2.35C85.8,109.95,85.45,109.17,84.7,108.42z M84.7,108.42l-1.46-1.45c-0.74-0.75-1.53-1.11-2.34-1.06
		c-0.82,0.04-1.6,0.44-2.35,1.19l-5.29,5.29l6.01,6.02l5.3-5.29c0.75-0.75,1.14-1.53,1.19-2.35
		C85.8,109.95,85.45,109.17,84.7,108.42z M84.7,108.42l-1.46-1.45c-0.74-0.75-1.53-1.11-2.34-1.06c-0.82,0.04-1.6,0.44-2.35,1.19
		l-5.29,5.29l6.01,6.02l5.3-5.29c0.75-0.75,1.14-1.53,1.19-2.35C85.8,109.95,85.45,109.17,84.7,108.42z M84.7,108.42l-1.46-1.45
		c-0.74-0.75-1.53-1.11-2.34-1.06c-0.82,0.04-1.6,0.44-2.35,1.19l-5.29,5.29l6.01,6.02l5.3-5.29c0.75-0.75,1.14-1.53,1.19-2.35
		C85.8,109.95,85.45,109.17,84.7,108.42z M172.6,102.18l-4.68-57.73c-0.54-6.63-5.74-11.83-12.36-12.37L97.82,27.4
		c-3.95-0.32-7.83,1.11-10.63,3.91L8.95,109.55c-5.27,5.27-5.27,13.83,0,19.09l62.41,62.41c5.26,5.27,13.82,5.27,19.09,0
		l78.24-78.24C171.49,110.01,172.92,106.13,172.6,102.18z M70.11,152.97c-0.69,0.69-1.61,1.04-2.51,1.04
		c-0.92,0-1.82-0.35-2.52-1.04l-18.05-18.05c-1.39-1.39-1.39-3.64,0-5.03l10.56-10.57c1.24-1.23,3.24-1.23,4.47,0
		c0.62,0.62,0.92,1.42,0.92,2.23s-0.3,1.61-0.92,2.23L54,131.84l4.7,4.7l6.53-6.54c1.24-1.23,3.24-1.23,4.47,0
		c0.62,0.62,0.92,1.43,0.92,2.24s-0.3,1.62-0.92,2.23L63.17,141l6.94,6.95C71.5,149.33,71.5,151.59,70.11,152.97z M101.59,121.49
		l-0.56,0.57c-0.87,0.86-2.14,1.15-3.29,0.74l-10.63-3.76l-3.6,3.6l6.23,6.24c1.24,1.23,1.24,3.23,0,4.46l-0.56,0.57
		c-1.23,1.23-3.23,1.23-4.46,0l-18.34-18.34c-1.39-1.39-1.39-3.64,0-5.03l8.43-8.44c1.06-1.05,2.19-1.84,3.41-2.35
		c1.21-0.5,2.44-0.73,3.7-0.69c1.26,0.04,2.5,0.35,3.74,0.93c1.23,0.57,2.4,1.41,3.5,2.51c1.57,1.57,2.59,3.28,3.06,5.14
		c0.48,1.87,0.27,3.77-0.61,5.71l8.75,2.91C102.59,117.01,103.25,119.83,101.59,121.49z M122.72,100.37l-11.25,11.24
		c-1.23,1.24-3.23,1.24-4.46,0L88.67,93.27c-1.39-1.39-1.39-3.64,0-5.02l10.96-10.97c1.24-1.23,3.23-1.23,4.47,0
		c0.62,0.62,0.92,1.42,0.92,2.23s-0.3,1.62-0.92,2.24l-8.45,8.45l4.69,4.69l6.93-6.93c1.24-1.23,3.23-1.23,4.47,0
		c0.62,0.62,0.92,1.43,0.92,2.24s-0.3,1.62-0.92,2.23l-6.93,6.93l4.99,4.99l8.45-8.45c1.24-1.23,3.24-1.23,4.47,0
		c0.62,0.62,0.92,1.43,0.92,2.24C123.64,98.94,123.34,99.75,122.72,100.37z M142.8,80.29l-11.25,11.25c-1.23,1.23-3.23,1.23-4.46,0
		L108.74,73.2c-1.38-1.39-1.38-3.64,0-5.03l10.97-10.97c1.23-1.23,3.23-1.23,4.46,0c0.62,0.62,0.93,1.43,0.93,2.24
		s-0.31,1.62-0.93,2.23l-8.45,8.45l4.7,4.7l6.93-6.93c1.23-1.24,3.23-1.24,4.47,0c0.62,0.61,0.92,1.42,0.92,2.23
		s-0.3,1.62-0.92,2.23l-6.93,6.93l4.99,5l8.45-8.45c1.23-1.24,3.23-1.24,4.47,0c0.62,0.61,0.92,1.42,0.92,2.23
		S143.42,79.68,142.8,80.29z M147.77,66.62c-7.95,0-14.39-6.44-14.39-14.39s6.44-14.39,14.39-14.39c7.95,0,14.39,6.44,14.39,14.39
		S155.72,66.62,147.77,66.62z M83.24,106.97c-0.74-0.75-1.53-1.11-2.34-1.06c-0.82,0.04-1.6,0.44-2.35,1.19l-5.29,5.29l6.01,6.02
		l5.3-5.29c0.75-0.75,1.14-1.53,1.19-2.35c0.04-0.82-0.31-1.6-1.06-2.35L83.24,106.97z M84.7,108.42l-1.46-1.45
		c-0.74-0.75-1.53-1.11-2.34-1.06c-0.82,0.04-1.6,0.44-2.35,1.19l-5.29,5.29l6.01,6.02l5.3-5.29c0.75-0.75,1.14-1.53,1.19-2.35
		C85.8,109.95,85.45,109.17,84.7,108.42z M84.7,108.42l-1.46-1.45c-0.74-0.75-1.53-1.11-2.34-1.06c-0.82,0.04-1.6,0.44-2.35,1.19
		l-5.29,5.29l6.01,6.02l5.3-5.29c0.75-0.75,1.14-1.53,1.19-2.35C85.8,109.95,85.45,109.17,84.7,108.42z"/>
</g>
<g>
	<path d="M187.15,50.8l-5.98,5.97c-10.4,10.41-27.29,10.47-37.78,0.17c-1.37-1.35-1.58-3.6-0.27-5.01c1.36-1.47,3.66-1.51,5.05-0.1
		c7.74,7.73,20.32,7.73,28.05,0l5.98-5.98c7.74-7.74,7.74-20.32,0-28.05c-7.73-7.74-20.31-7.74-28.05,0l-6.36,6.36
		c-0.73,0.73-1.73,1.1-2.76,1.01h0c-2.97-0.24-4.3-3.85-2.19-5.96l6.36-6.36c10.47-10.47,27.49-10.47,37.95,0
		C197.62,23.31,197.62,40.33,187.15,50.8z"/>
</g>
</svg>
