<?xml version="1.0" encoding="utf-8"?>
<!-- Generator: Adobe Illustrator 27.6.1, SVG Export Plug-In . SVG Version: 6.00 Build 0)  -->
<svg version="1.1" id="Layer_1" xmlns="http://www.w3.org/2000/svg" xmlns:xlink="http://www.w3.org/1999/xlink" x="0px" y="0px"
	 viewBox="0 0 200 200" style="enable-background:new 0 0 200 200;" xml:space="preserve">
<path d="M190,73.17l-17.53-14.21c-2.39-1.94-5.41-3.01-8.5-3.01h-17.64c-1.58-5.71-6.8-9.92-13.01-9.92H34.94
	c-1.94,0-3.5,1.56-3.5,3.5c0,1.93,1.56,3.5,3.5,3.5h98.38c3.59,0,6.5,2.91,6.5,6.5v73.42H90.7c-1.62-7.99-8.7-14.03-17.17-14.03
	c-8.47,0-15.55,6.04-17.17,14.03H30.94c-1.94,0-3.5,1.57-3.5,3.5c0,1.94,1.56,3.5,3.5,3.5h25.42c1.63,7.99,8.71,14.02,17.17,14.02
	c8.46,0,15.54-6.03,17.17-14.02h58.41c1.63,7.99,8.71,14.02,17.17,14.02c8.52,0,15.63-6.11,17.2-14.18
	c6.51-0.96,11.52-6.57,11.52-13.34V83.66C195,79.57,193.18,75.74,190,73.17z M73.53,143.45c-3.87,0-7-3.13-7-7c0-3.86,3.13-7,7-7
	c3.86,0,7,3.14,7,7C80.53,140.32,77.39,143.45,73.53,143.45z M166.28,143.45c-3.86,0-7-3.14-7-7c0-3.87,3.14-7,7-7
	c3.87,0,7,3.13,7,7C173.28,140.31,170.15,143.45,166.28,143.45z M188,106.75h-16.44c-1.93,0-3.5,1.57-3.5,3.5s1.57,3.5,3.5,3.5H188
	v12.7c0,2.93-1.95,5.41-4.61,6.22c-1.73-7.85-8.74-13.75-17.11-13.75c-8.46,0-15.54,6.04-17.17,14.03h-2.29v-70h8.28v25.09
	c0,7.44,6.06,13.5,13.5,13.5H188V106.75z"/>
<path d="M25.77,74.3h106.27c1.93,0,3.5-1.57,3.5-3.5s-1.57-3.5-3.5-3.5H25.77c-1.93,0-3.5,1.57-3.5,3.5S23.84,74.3,25.77,74.3z"/>
<path d="M67.25,88.99c0-1.93-1.57-3.5-3.5-3.5H8.5c-1.93,0-3.5,1.57-3.5,3.5s1.57,3.5,3.5,3.5h55.25
	C65.68,92.49,67.25,90.92,67.25,88.99z"/>
<path d="M87.73,107.18c0-1.93-1.57-3.5-3.5-3.5H20.98c-1.93,0-3.5,1.57-3.5,3.5s1.57,3.5,3.5,3.5h63.25
	C86.16,110.68,87.73,109.11,87.73,107.18z"/>
<path d="M128.47,88.99c0-1.93-1.57-3.5-3.5-3.5H89.72c-1.93,0-3.5,1.57-3.5,3.5s1.57,3.5,3.5,3.5h35.25
	C126.91,92.49,128.47,90.92,128.47,88.99z"/>
<path d="M133.29,107.18c0-1.93-1.57-3.5-3.5-3.5h-23.25c-1.93,0-3.5,1.57-3.5,3.5s1.57,3.5,3.5,3.5h23.25
	C131.72,110.68,133.29,109.11,133.29,107.18z"/>
</svg>
