<?xml version="1.0" encoding="utf-8"?>
<!-- Generator: Adobe Illustrator 27.6.1, SVG Export Plug-In . SVG Version: 6.00 Build 0)  -->
<svg version="1.1" id="Layer_1" xmlns="http://www.w3.org/2000/svg" xmlns:xlink="http://www.w3.org/1999/xlink" x="0px" y="0px"
	 viewBox="0 0 200 200" style="enable-background:new 0 0 200 200;" xml:space="preserve">
<g>
	<path d="M68.28,62.95h54.86c1.93,0,3.5-1.57,3.5-3.5s-1.57-3.5-3.5-3.5H68.28c-1.93,0-3.5,1.57-3.5,3.5S66.35,62.95,68.28,62.95z"
		/>
	<path d="M76.77,78.49H27.85c-1.93,0-3.5,1.57-3.5,3.5s1.57,3.5,3.5,3.5h48.93c1.93,0,3.5-1.57,3.5-3.5S78.71,78.49,76.77,78.49z"/>
	<path d="M132.04,78.49H98.5c-1.93,0-3.5,1.57-3.5,3.5s1.57,3.5,3.5,3.5h33.54c1.93,0,3.5-1.57,3.5-3.5S133.97,78.49,132.04,78.49z"
		/>
	<path d="M54.86,59.45c0-1.93-1.57-3.5-3.5-3.5H17.82c-1.93,0-3.5,1.57-3.5,3.5s1.57,3.5,3.5,3.5h33.54
		C53.29,62.95,54.86,61.38,54.86,59.45z"/>
	<path d="M190,73.17l-17.53-14.21c-2.39-1.94-5.41-3.01-8.5-3.01h-17.15V38.03c0-6.63-5.37-12-12-12H17c-6.63,0-12,5.37-12,12v89.92
		c0,6.63,5.37,12,12,12h19.36c1.63,7.99,8.71,14.02,17.17,14.02c8.46,0,15.54-6.03,17.17-14.02h78.41
		c1.63,7.99,8.71,14.02,17.17,14.02c8.52,0,15.63-6.11,17.2-14.18c6.51-0.96,11.52-6.57,11.52-13.34V83.66
		C195,79.57,193.18,75.74,190,73.17z M12,39.53c0-3.59,2.91-6.5,6.5-6.5h114.82c3.59,0,6.5,2.91,6.5,6.5v64.15H12V39.53z
		 M53.53,143.45c-3.87,0-7-3.13-7-7c0-3.86,3.13-7,7-7c3.86,0,7,3.14,7,7C60.53,140.32,57.39,143.45,53.53,143.45z M139.82,132.95
		H70.7c-1.62-7.99-8.7-14.03-17.17-14.03c-8.47,0-15.55,6.04-17.17,14.03H18.5c-3.59,0-6.5-2.91-6.5-6.5v-15.77h127.82V132.95z
		 M166.28,143.45c-3.86,0-7-3.14-7-7c0-3.87,3.14-7,7-7c3.87,0,7,3.13,7,7C173.28,140.31,170.15,143.45,166.28,143.45z M188,106.75
		h-16.44c-1.93,0-3.5,1.57-3.5,3.5s1.57,3.5,3.5,3.5H188v12.7c0,2.93-1.95,5.41-4.61,6.22c-1.73-7.85-8.74-13.75-17.11-13.75
		c-8.46,0-15.54,6.04-17.17,14.03h-2.29v-70h8.28v25.09c0,7.44,6.06,13.5,13.5,13.5H188V106.75z"/>
</g>
</svg>
