<?xml version="1.0" encoding="utf-8"?>
<!-- Generator: Adobe Illustrator 27.6.1, SVG Export Plug-In . SVG Version: 6.00 Build 0)  -->
<svg version="1.1" id="Layer_1" xmlns="http://www.w3.org/2000/svg" xmlns:xlink="http://www.w3.org/1999/xlink" x="0px" y="0px"
	 viewBox="0 0 200 200" style="enable-background:new 0 0 200 200;" xml:space="preserve">
<g>
	<g>
		<path d="M65.08,152.97l-18.06-18.06c-1.39-1.39-1.39-3.64,0-5.03l10.57-10.57c1.23-1.23,3.23-1.23,4.47,0h0
			c1.23,1.23,1.23,3.23,0,4.47L54,131.84l4.7,4.7l6.53-6.53c1.23-1.23,3.23-1.23,4.47,0h0c1.23,1.23,1.23,3.23,0,4.47L63.17,141
			l6.95,6.95c1.39,1.39,1.39,3.64,0,5.03h0C68.72,154.36,66.47,154.36,65.08,152.97z"/>
		<path d="M89.74,133.34l-0.56,0.56c-1.23,1.23-3.23,1.23-4.47,0l-18.34-18.34c-1.39-1.39-1.39-3.64,0-5.03l8.43-8.43
			c1.06-1.06,2.19-1.84,3.41-2.35c1.21-0.51,2.45-0.74,3.7-0.69c1.26,0.04,2.5,0.35,3.74,0.93c1.24,0.57,2.4,1.41,3.51,2.51
			c1.57,1.57,2.59,3.28,3.06,5.14c0.47,1.86,0.27,3.77-0.61,5.71l8.75,2.92c2.23,0.74,2.89,3.57,1.23,5.23l-0.57,0.57
			c-0.86,0.86-2.14,1.15-3.29,0.74l-10.62-3.77l-3.61,3.61l6.23,6.23C90.98,130.11,90.98,132.11,89.74,133.34z M84.57,113.12
			c0.75-0.75,1.15-1.53,1.19-2.35c0.04-0.82-0.31-1.6-1.06-2.35l-1.46-1.46c-0.75-0.75-1.53-1.1-2.35-1.06
			c-0.82,0.04-1.6,0.44-2.35,1.19l-5.29,5.29l6.02,6.02L84.57,113.12z"/>
		<path d="M107.01,111.61L88.67,93.27c-1.39-1.39-1.39-3.64,0-5.03l10.96-10.96c1.23-1.23,3.23-1.23,4.47,0l0,0
			c1.23,1.23,1.23,3.23,0,4.47l-8.45,8.45l4.7,4.7l6.93-6.93c1.23-1.23,3.23-1.23,4.47,0l0,0c1.23,1.23,1.23,3.23,0,4.47l-6.93,6.93
			l4.99,4.99l8.45-8.45c1.23-1.23,3.23-1.23,4.47,0l0,0c1.23,1.23,1.23,3.23,0,4.47l-11.25,11.25
			C110.24,112.85,108.24,112.85,107.01,111.61z"/>
		<path d="M127.09,91.54L108.74,73.2c-1.39-1.39-1.39-3.64,0-5.03l10.96-10.96c1.23-1.23,3.23-1.23,4.47,0v0
			c1.23,1.23,1.23,3.23,0,4.47l-8.45,8.45l4.7,4.7l6.93-6.93c1.23-1.23,3.23-1.23,4.47,0h0c1.23,1.23,1.23,3.23,0,4.47l-6.93,6.93
			l4.99,4.99l8.45-8.45c1.23-1.23,3.23-1.23,4.47,0l0,0c1.23,1.23,1.23,3.23,0,4.47l-11.25,11.25
			C130.32,92.77,128.32,92.77,127.09,91.54z"/>
	</g>
	<g>
		<path d="M71.36,191.05L8.95,128.64c-5.26-5.26-5.26-13.83,0-19.09l78.24-78.24c2.8-2.8,6.68-4.23,10.64-3.91l57.73,4.68
			c6.63,0.54,11.83,5.74,12.37,12.37l4.68,57.73c0.32,3.95-1.1,7.83-3.91,10.64l-78.24,78.24
			C85.18,196.32,76.62,196.32,71.36,191.05z M159.07,40.93c-1.06-1.06-2.48-1.75-4.08-1.88l-57.73-4.68
			c-1.9-0.15-3.77,0.53-5.12,1.88L13.9,114.5c-2.53,2.53-2.53,6.66,0,9.19l62.41,62.41c2.53,2.53,6.66,2.53,9.19,0l78.24-78.24
			c1.35-1.35,2.04-3.22,1.88-5.12l-4.68-57.73C160.81,43.41,160.12,41.99,159.07,40.93z"/>
	</g>
	<g>
		<path d="M141.02,58.97c-1.37-1.37-1.37-3.58,0-4.95c1.37-1.37,3.58-1.37,4.95,0c7.73,7.73,20.32,7.73,28.05,0l8.18-8.18
			c7.73-7.73,7.73-20.32,0-28.05c-7.73-7.73-20.32-7.73-28.05,0l-18.46,18.46c-1.37,1.37-3.58,1.37-4.95,0
			c-1.37-1.37-1.37-3.58,0-4.95l18.46-18.46c10.46-10.46,27.49-10.46,37.95,0c10.46,10.46,10.46,27.49,0,37.95l-8.18,8.18
			C168.51,69.44,151.49,69.44,141.02,58.97z"/>
	</g>
</g>
</svg>
