<?xml version="1.0" encoding="utf-8"?>
<!-- Generator: Adobe Illustrator 27.6.1, SVG Export Plug-In . SVG Version: 6.00 Build 0)  -->
<svg version="1.1" id="Layer_1" xmlns="http://www.w3.org/2000/svg" xmlns:xlink="http://www.w3.org/1999/xlink" x="0px" y="0px"
	 viewBox="0 0 200 200" style="enable-background:new 0 0 200 200;" xml:space="preserve">
<g>
	<path d="M183.31,149.46c-0.17-0.74-0.4-1.46-0.67-2.16c-0.06-0.18-0.14-0.36-0.21-0.54c-0.08-0.17-0.15-0.34-0.23-0.5
		c-0.07-0.17-0.15-0.33-0.23-0.49c-0.09-0.19-0.19-0.37-0.29-0.55c-0.11-0.22-0.23-0.43-0.36-0.64c-0.46-0.77-0.98-1.49-1.55-2.18
		c-0.17-0.21-0.35-0.41-0.53-0.61c-0.19-0.21-0.38-0.41-0.58-0.61c-0.2-0.2-0.4-0.39-0.61-0.58c-0.21-0.19-0.42-0.37-0.63-0.55
		c-0.41-0.34-0.83-0.66-1.27-0.96c-0.27-0.18-0.55-0.36-0.83-0.53c-0.47-0.28-0.96-0.55-1.45-0.79c-0.77-0.37-1.56-0.68-2.39-0.94
		c-0.27-0.09-0.55-0.16-0.83-0.24c-0.56-0.14-1.13-0.26-1.71-0.35c-0.29-0.04-0.58-0.08-0.87-0.11c-0.3-0.03-0.59-0.05-0.89-0.07
		c-0.3-0.01-0.6-0.02-0.9-0.02c-0.3,0-0.6,0.01-0.9,0.02c-0.3,0.02-0.59,0.04-0.89,0.07c-0.29,0.03-0.57,0.07-0.85,0.11h-0.04
		c-0.29,0.05-0.57,0.1-0.85,0.16s-0.56,0.12-0.84,0.19c-1.12,0.29-2.2,0.69-3.22,1.18c-0.25,0.13-0.51,0.26-0.75,0.39
		c-0.25,0.14-0.5,0.28-0.74,0.42c-0.24,0.15-0.47,0.3-0.71,0.46c-0.46,0.31-0.91,0.65-1.35,1.01c0,0,0,0-0.01,0
		c-0.43,0.36-0.84,0.74-1.23,1.13c-0.2,0.2-0.39,0.4-0.58,0.61s-0.37,0.42-0.55,0.63c-0.16,0.19-0.31,0.38-0.46,0.58
		c-0.19,0.25-0.37,0.51-0.55,0.77c-0.13,0.19-0.25,0.38-0.37,0.57c-0.18,0.29-0.35,0.58-0.51,0.88c-0.14,0.24-0.27,0.5-0.39,0.75
		s-0.24,0.51-0.35,0.77c-0.06,0.14-0.12,0.28-0.17,0.43c-0.09,0.22-0.17,0.44-0.25,0.67c-0.25,0.72-0.45,1.46-0.61,2.22
		c-0.23,1.13-0.35,2.3-0.35,3.5c0,1.2,0.12,2.37,0.35,3.5c0.16,0.76,0.36,1.5,0.61,2.22c0.08,0.23,0.16,0.45,0.25,0.67
		c0.05,0.15,0.11,0.29,0.17,0.43c0.11,0.26,0.23,0.52,0.35,0.77s0.25,0.51,0.39,0.75c0.16,0.3,0.33,0.59,0.51,0.88
		c0.12,0.19,0.24,0.38,0.37,0.57c0.18,0.26,0.36,0.52,0.55,0.77c0.15,0.2,0.3,0.39,0.46,0.58c0.18,0.21,0.36,0.42,0.55,0.63
		c0.19,0.21,0.38,0.41,0.58,0.61c0.39,0.39,0.8,0.77,1.23,1.13c0.01,0,0.01,0,0.01,0c0.44,0.36,0.89,0.7,1.35,1.01
		c0.21,0.14,0.43,0.28,0.64,0.42c0.26,0.16,0.53,0.31,0.81,0.46c0.24,0.13,0.5,0.26,0.75,0.39c0.26,0.12,0.52,0.24,0.78,0.35
		c0.26,0.11,0.52,0.22,0.79,0.31c0.27,0.1,0.54,0.19,0.82,0.28c0.22,0.07,0.45,0.14,0.69,0.2c0.17,0.05,0.35,0.09,0.52,0.13
		c0.17,0.04,0.35,0.08,0.52,0.11c0.22,0.05,0.43,0.09,0.65,0.12c0.16,0.03,0.32,0.05,0.48,0.07c0.23,0.04,0.47,0.06,0.7,0.08
		c0.09,0.01,0.17,0.02,0.26,0.02c0.2,0.02,0.39,0.03,0.59,0.04c0.26,0.01,0.53,0.02,0.79,0.02c0.26,0,0.53-0.01,0.79-0.02
		c0.19-0.01,0.38-0.02,0.56-0.04c0.37-0.02,0.73-0.06,1.08-0.11c0.17-0.02,0.34-0.05,0.51-0.08c0.21-0.03,0.41-0.07,0.62-0.12
		c0.21-0.04,0.42-0.08,0.62-0.14c0.35-0.08,0.69-0.17,1.02-0.28c0.28-0.09,0.55-0.18,0.82-0.28c0.8-0.29,1.58-0.64,2.32-1.05
		c0.21-0.12,0.42-0.23,0.63-0.36c0.29-0.17,0.56-0.34,0.84-0.54c0.22-0.15,0.45-0.31,0.66-0.47c0.23-0.17,0.45-0.34,0.67-0.52
		c0.43-0.36,0.84-0.73,1.24-1.13c0.2-0.2,0.39-0.4,0.58-0.61c0.13-0.13,0.25-0.28,0.36-0.42c0.16-0.17,0.3-0.34,0.43-0.52
		c0.02-0.02,0.04-0.03,0.05-0.06c0.15-0.19,0.29-0.37,0.43-0.57c0.66-0.9,1.23-1.88,1.69-2.91c0.08-0.16,0.15-0.32,0.22-0.48
		c0.08-0.18,0.15-0.36,0.22-0.55c0.07-0.18,0.14-0.37,0.21-0.57c0.16-0.47,0.31-0.96,0.43-1.45c0.06-0.22,0.11-0.45,0.15-0.67
		c0.02-0.08,0.04-0.15,0.05-0.23c0.21-1.08,0.32-2.2,0.32-3.34C183.8,152.15,183.63,150.77,183.31,149.46z M166.28,164.08
		c-5.8,0-10.52-4.72-10.52-10.52c0-5.8,4.72-10.52,10.52-10.52c5.8,0,10.52,4.72,10.52,10.52
		C176.8,159.36,172.08,164.08,166.28,164.08z"/>
</g>
<g>
	<path d="M70.7,150.06c-0.13-0.63-0.29-1.26-0.49-1.86c-0.07-0.22-0.15-0.44-0.23-0.66c-0.1-0.27-0.2-0.53-0.31-0.79
		c-0.11-0.26-0.23-0.52-0.35-0.78c-0.25-0.51-0.52-1.01-0.81-1.49c-0.15-0.24-0.3-0.47-0.46-0.71c-0.31-0.46-0.65-0.91-1.01-1.35
		c-0.36-0.43-0.73-0.84-1.13-1.24c-0.39-0.39-0.8-0.77-1.23-1.13c-0.01,0-0.01,0-0.01,0c-0.44-0.36-0.89-0.7-1.35-1.01
		c-0.24-0.16-0.47-0.31-0.71-0.46c-0.24-0.14-0.49-0.28-0.74-0.42c-0.24-0.13-0.5-0.26-0.75-0.39c-1.02-0.49-2.1-0.89-3.22-1.18
		c-0.28-0.07-0.56-0.13-0.84-0.19c-0.28-0.06-0.56-0.11-0.85-0.16h-0.04c-0.28-0.04-0.56-0.08-0.85-0.11
		c-0.3-0.03-0.59-0.05-0.89-0.07c-0.3-0.01-0.6-0.02-0.9-0.02c-0.3,0-0.6,0.01-0.9,0.02c-0.3,0.02-0.59,0.04-0.89,0.07
		c-0.29,0.03-0.57,0.07-0.85,0.11h-0.04c-0.29,0.05-0.57,0.1-0.85,0.16s-0.56,0.12-0.84,0.19c-1.12,0.29-2.2,0.69-3.22,1.18
		c-0.25,0.13-0.51,0.26-0.75,0.39c-0.25,0.14-0.5,0.28-0.74,0.42c-0.24,0.15-0.47,0.3-0.71,0.46c-0.46,0.31-0.91,0.65-1.35,1.01
		c0,0,0,0-0.01,0c-0.43,0.36-0.84,0.74-1.23,1.13c-0.4,0.4-0.77,0.81-1.13,1.24c-0.36,0.44-0.7,0.89-1.01,1.35
		c-0.16,0.24-0.31,0.47-0.46,0.71c-0.29,0.48-0.56,0.98-0.81,1.49c-0.12,0.26-0.24,0.52-0.35,0.78c-0.11,0.26-0.21,0.52-0.31,0.79
		c-0.08,0.22-0.16,0.44-0.23,0.66c-0.2,0.6-0.36,1.23-0.49,1.86c-0.23,1.13-0.35,2.3-0.35,3.5c0,1.2,0.12,2.37,0.35,3.5
		c0.13,0.63,0.29,1.26,0.49,1.86c0.06,0.19,0.13,0.38,0.2,0.57c0.14,0.41,0.3,0.81,0.48,1.2c0.1,0.21,0.19,0.42,0.3,0.63
		c0.38,0.77,0.82,1.51,1.31,2.21c0.11,0.17,0.23,0.34,0.36,0.5c0.19,0.26,0.39,0.51,0.6,0.76c0.15,0.18,0.31,0.36,0.47,0.54
		c0.19,0.21,0.38,0.41,0.58,0.61c0.05,0.05,0.09,0.09,0.14,0.14c0.35,0.34,0.71,0.67,1.09,0.99c0.01,0,0.01,0,0.01,0
		c0.43,0.35,0.87,0.69,1.33,1c0.47,0.32,0.96,0.62,1.47,0.89c0.2,0.11,0.41,0.22,0.62,0.32c0.55,0.28,1.12,0.52,1.7,0.73
		c0.27,0.1,0.54,0.19,0.82,0.28c0.22,0.07,0.45,0.14,0.69,0.2c0.18,0.05,0.35,0.09,0.52,0.13c0.17,0.04,0.35,0.08,0.52,0.11
		c0.22,0.05,0.43,0.09,0.65,0.12c0.16,0.03,0.32,0.05,0.48,0.07c0.23,0.04,0.47,0.06,0.7,0.08c0.09,0.01,0.17,0.02,0.26,0.02
		c0.2,0.02,0.39,0.03,0.59,0.04c0.26,0.01,0.53,0.02,0.79,0.02c0.26,0,0.53-0.01,0.79-0.02c0.2-0.01,0.39-0.02,0.59-0.04
		c0.09,0,0.17-0.01,0.26-0.02c0.23-0.02,0.47-0.04,0.7-0.08c0.16-0.02,0.32-0.04,0.48-0.07c0.22-0.03,0.43-0.07,0.65-0.12
		c0.17-0.03,0.35-0.07,0.52-0.11c0.17-0.04,0.34-0.08,0.52-0.13c0.24-0.06,0.47-0.13,0.69-0.2c0.28-0.09,0.55-0.18,0.82-0.28
		c0.58-0.21,1.15-0.45,1.7-0.73c0.21-0.1,0.42-0.21,0.62-0.32c0.51-0.27,1-0.57,1.47-0.89c0.46-0.31,0.9-0.65,1.33-1c0,0,0,0,0.01,0
		c0.38-0.32,0.74-0.65,1.09-0.99c0.05-0.05,0.09-0.09,0.14-0.14c0.2-0.2,0.39-0.4,0.58-0.61c0.16-0.18,0.32-0.36,0.47-0.54
		c0.21-0.25,0.41-0.5,0.6-0.76c0.13-0.16,0.25-0.33,0.36-0.5c0.49-0.7,0.93-1.44,1.31-2.21c0.11-0.21,0.2-0.42,0.3-0.63
		c0.18-0.39,0.34-0.79,0.48-1.2c0.07-0.19,0.14-0.38,0.2-0.57c0.2-0.6,0.36-1.23,0.49-1.86c0.23-1.13,0.35-2.3,0.35-3.5
		C71.05,152.36,70.93,151.19,70.7,150.06z M53.53,164.08c-5.8,0-10.52-4.72-10.52-10.52c0-5.8,4.72-10.52,10.52-10.52
		c5.8,0,10.52,4.72,10.52,10.52C64.05,159.36,59.33,164.08,53.53,164.08z"/>
</g>
<g>
	<path d="M27.95,101.83l0-22.72c0-1.75,1.42-3.16,3.16-3.16h13.29c1.55,0,2.81,1.26,2.81,2.81v0c0,1.55-1.26,2.81-2.81,2.81H34.28
		l0,5.91h8.22c1.55,0,2.81,1.26,2.81,2.81l0,0c0,1.55-1.26,2.81-2.81,2.81l-8.22,0v8.74c0,1.75-1.42,3.16-3.16,3.16h0
		C29.37,104.99,27.95,103.57,27.95,101.83z"/>
	<path d="M55.81,104.99H55.1c-1.55,0-2.81-1.26-2.81-2.81l0-23.07c0-1.75,1.42-3.16,3.16-3.16h10.61c1.33,0,2.54,0.22,3.62,0.67
		c1.08,0.44,2,1.08,2.77,1.89c0.76,0.82,1.35,1.8,1.77,2.93c0.42,1.14,0.62,2.4,0.62,3.79c0,1.97-0.44,3.69-1.31,5.16
		c-0.87,1.47-2.2,2.54-3.97,3.2l3.67,7.34c0.93,1.87-0.42,4.06-2.51,4.06H70c-1.08,0-2.07-0.62-2.54-1.6l-4.31-9.05h-4.54v7.84
		C58.62,103.73,57.36,104.99,55.81,104.99z M65.27,89.01c0.94,0,1.68-0.24,2.23-0.73c0.54-0.49,0.81-1.2,0.81-2.14v-1.83
		c0-0.94-0.27-1.66-0.81-2.14c-0.54-0.49-1.28-0.73-2.23-0.73h-6.66v7.57H65.27z"/>
	<path d="M80.33,102.18V79.11c0-1.75,1.42-3.16,3.16-3.16h13.79c1.55,0,2.81,1.26,2.81,2.81v0c0,1.55-1.26,2.81-2.81,2.81H86.66
		v5.91l8.72,0c1.55,0,2.81,1.26,2.81,2.81v0c0,1.55-1.26,2.81-2.81,2.81h-8.72v6.28h10.63c1.55,0,2.81,1.26,2.81,2.81v0
		c0,1.55-1.26,2.81-2.81,2.81H83.14C81.59,104.99,80.33,103.73,80.33,102.18z"/>
	<path d="M105.59,102.18V79.11c0-1.75,1.42-3.16,3.16-3.16l13.79,0c1.55,0,2.81,1.26,2.81,2.81v0c0,1.55-1.26,2.81-2.81,2.81
		l-10.63,0v5.91h8.72c1.55,0,2.81,1.26,2.81,2.81v0c0,1.55-1.26,2.81-2.81,2.81h-8.72v6.28l10.63,0c1.55,0,2.81,1.26,2.81,2.81v0
		c0,1.55-1.26,2.81-2.81,2.81l-14.15,0C106.85,104.99,105.59,103.73,105.59,102.18z"/>
</g>
<path d="M190,90.28l-17.53-14.21c-2.39-1.94-5.41-3.01-8.5-3.01h-17.15v-7.92c0-6.63-5.37-12-12-12H123.8
	c2.17-2.9,3.47-6.48,3.47-10.36c0-9.57-7.79-17.36-17.37-17.36c-5.67,0-10.69,2.74-13.86,6.95c-3.17-4.21-8.2-6.95-13.86-6.95
	c-9.57,0-17.36,7.79-17.36,17.36c0,3.89,1.3,7.47,3.47,10.36H17c-6.63,0-12,5.37-12,12v79.92c0,6.63,5.37,12,12,12h19.36
	c0.13,0.63,0.29,1.26,0.49,1.86c0.06,0.19,0.13,0.38,0.2,0.57c0.14,0.41,0.3,0.81,0.48,1.2c0.1,0.21,0.19,0.42,0.3,0.63
	c0.38,0.77,0.82,1.51,1.31,2.21c0.11,0.17,0.23,0.34,0.36,0.5c0.19,0.26,0.39,0.51,0.6,0.76c0.15,0.18,0.31,0.36,0.47,0.54
	c0.19,0.21,0.38,0.41,0.58,0.61c0.05,0.05,0.09,0.09,0.14,0.14c0.35,0.35,0.71,0.68,1.09,0.99c0.01,0,0.01,0,0.01,0
	c0.43,0.35,0.87,0.69,1.33,1c0.47,0.32,0.96,0.62,1.47,0.89c0.2,0.11,0.41,0.22,0.62,0.32c0.55,0.28,1.12,0.52,1.7,0.73
	c0.27,0.1,0.54,0.19,0.82,0.28c0.22,0.07,0.45,0.14,0.69,0.2c0.18,0.05,0.35,0.09,0.52,0.13c0.17,0.04,0.35,0.08,0.52,0.11
	c0.22,0.05,0.43,0.09,0.65,0.12c0.16,0.03,0.32,0.05,0.48,0.07c0.23,0.04,0.47,0.06,0.7,0.08c0.09,0.01,0.17,0.02,0.26,0.02
	c0.2,0.02,0.39,0.03,0.59,0.04c0.26,0.01,0.53,0.02,0.79,0.02c0.26,0,0.53-0.01,0.79-0.02c0.2-0.01,0.39-0.02,0.59-0.04
	c0.09,0,0.17-0.01,0.26-0.02c0.23-0.02,0.47-0.04,0.7-0.08c0.16-0.02,0.32-0.04,0.48-0.07c0.22-0.03,0.43-0.07,0.65-0.12
	c0.17-0.03,0.35-0.07,0.52-0.11c0.17-0.04,0.34-0.08,0.52-0.13c0.24-0.06,0.47-0.13,0.69-0.2c0.28-0.09,0.55-0.18,0.82-0.28
	c0.58-0.21,1.15-0.45,1.7-0.73c0.21-0.1,0.42-0.21,0.62-0.32c0.51-0.27,1-0.57,1.47-0.89c0.46-0.31,0.9-0.65,1.33-1c0,0,0,0,0.01,0
	c0.38-0.32,0.74-0.65,1.09-0.99c0.05-0.05,0.09-0.09,0.14-0.14c0.2-0.2,0.39-0.4,0.58-0.61c0.16-0.18,0.32-0.36,0.47-0.54
	c0.21-0.25,0.41-0.5,0.6-0.76c0.13-0.16,0.25-0.33,0.36-0.5c0.49-0.7,0.93-1.44,1.31-2.21c0.11-0.21,0.2-0.42,0.3-0.63
	c0.18-0.39,0.34-0.79,0.48-1.2c0.07-0.19,0.14-0.38,0.2-0.57c0.2-0.6,0.36-1.23,0.49-1.86h78.41c0.16,0.76,0.36,1.5,0.61,2.22
	c0.08,0.23,0.16,0.45,0.25,0.67c0.05,0.15,0.11,0.29,0.17,0.43c0.11,0.26,0.23,0.52,0.35,0.77s0.25,0.51,0.39,0.75
	c0.16,0.3,0.33,0.59,0.51,0.88c0.12,0.19,0.24,0.38,0.37,0.57c0.18,0.26,0.36,0.52,0.55,0.77c0.15,0.2,0.3,0.39,0.46,0.58
	c0.18,0.21,0.36,0.42,0.55,0.63c0.19,0.21,0.38,0.41,0.58,0.61c0.39,0.39,0.8,0.77,1.23,1.13c0.01,0,0.01,0,0.01,0
	c0.44,0.36,0.89,0.7,1.35,1.01c0.21,0.14,0.43,0.28,0.64,0.42c0.26,0.16,0.53,0.31,0.81,0.46c0.24,0.13,0.5,0.26,0.75,0.39
	c0.26,0.12,0.52,0.24,0.78,0.35c0.26,0.11,0.52,0.22,0.79,0.31c0.27,0.1,0.54,0.19,0.82,0.28c0.22,0.07,0.45,0.14,0.69,0.2
	c0.17,0.05,0.35,0.09,0.52,0.13c0.17,0.04,0.35,0.08,0.52,0.11c0.22,0.05,0.43,0.09,0.65,0.12c0.16,0.03,0.32,0.05,0.48,0.07
	c0.23,0.04,0.47,0.06,0.7,0.08c0.09,0.01,0.17,0.02,0.26,0.02c0.2,0.02,0.39,0.03,0.59,0.04c0.26,0.01,0.53,0.02,0.79,0.02
	c0.26,0,0.53-0.01,0.79-0.02c0.19-0.01,0.38-0.02,0.56-0.04c0.37-0.02,0.73-0.06,1.08-0.11c0.17-0.02,0.34-0.05,0.51-0.08
	c0.21-0.03,0.41-0.07,0.62-0.12c0.21-0.04,0.42-0.08,0.62-0.14c0.35-0.08,0.69-0.17,1.02-0.28c0.28-0.09,0.55-0.18,0.82-0.28
	c0.8-0.29,1.58-0.64,2.32-1.05c0.21-0.12,0.42-0.23,0.63-0.36c0.29-0.17,0.56-0.34,0.84-0.54c0.22-0.15,0.45-0.31,0.66-0.47
	c0.23-0.17,0.45-0.34,0.67-0.52c0.43-0.36,0.84-0.73,1.24-1.13c0.2-0.2,0.39-0.4,0.58-0.61c0.13-0.13,0.25-0.28,0.36-0.42
	c0.16-0.17,0.3-0.34,0.43-0.52c0.02-0.02,0.04-0.03,0.05-0.06c0.15-0.19,0.29-0.37,0.43-0.57c0.66-0.9,1.23-1.88,1.69-2.91
	c0.08-0.16,0.15-0.32,0.22-0.48c0.08-0.18,0.15-0.36,0.22-0.55c0.07-0.18,0.14-0.37,0.21-0.57c0.16-0.47,0.31-0.96,0.43-1.45
	c0.06-0.22,0.11-0.45,0.15-0.67c0.02-0.08,0.04-0.15,0.05-0.23c6.51-0.96,11.52-6.57,11.52-13.34v-42.8
	C195,96.67,193.18,92.85,190,90.28z M109.9,32.42c5.72,0,10.37,4.65,10.37,10.36c0,5.72-4.65,10.36-10.37,10.36H99.54V42.78
	C99.54,37.06,104.19,32.42,109.9,32.42z M71.81,42.78c0-5.71,4.65-10.36,10.36-10.36c5.71,0,10.36,4.65,10.36,10.36v10.36H82.18
	C76.46,53.14,71.81,48.5,71.81,42.78z M53.53,164.08c-5.8,0-10.52-4.72-10.52-10.52c0-5.8,4.72-10.52,10.52-10.52
	c5.8,0,10.52,4.72,10.52,10.52C64.05,159.36,59.33,164.08,53.53,164.08z M139.82,150.06H70.7c-0.13-0.63-0.29-1.26-0.49-1.86
	c-0.07-0.22-0.15-0.44-0.23-0.66c-0.1-0.27-0.2-0.53-0.31-0.79c-0.11-0.26-0.23-0.52-0.35-0.78c-0.25-0.51-0.52-1.01-0.81-1.49
	c-0.15-0.24-0.3-0.47-0.46-0.71c-0.31-0.47-0.64-0.92-1.01-1.35c-0.36-0.43-0.73-0.84-1.13-1.24c-0.39-0.39-0.8-0.77-1.23-1.13
	c-0.01,0-0.01,0-0.01,0c-0.43-0.37-0.88-0.7-1.35-1.01c-0.24-0.16-0.47-0.31-0.71-0.46c-0.24-0.14-0.49-0.28-0.74-0.42
	c-0.24-0.13-0.5-0.26-0.75-0.39c-1.02-0.5-2.1-0.9-3.22-1.18c-0.28-0.07-0.56-0.13-0.84-0.19c-0.28-0.06-0.56-0.11-0.85-0.16h-0.04
	c-0.28-0.04-0.56-0.08-0.85-0.11c-0.3-0.03-0.59-0.05-0.89-0.07c-0.3-0.02-0.6-0.03-0.9-0.03c-0.3,0-0.6,0.01-0.9,0.03
	c-0.3,0.02-0.59,0.04-0.89,0.07c-0.29,0.03-0.57,0.07-0.85,0.11h-0.04c-0.29,0.05-0.57,0.1-0.85,0.16s-0.56,0.12-0.84,0.19
	c-1.12,0.28-2.2,0.68-3.22,1.18c-0.25,0.13-0.51,0.26-0.75,0.39c-0.25,0.14-0.5,0.28-0.74,0.42c-0.24,0.15-0.47,0.3-0.71,0.46
	c-0.47,0.31-0.92,0.64-1.35,1.01c0,0,0,0-0.01,0c-0.43,0.36-0.84,0.74-1.23,1.13c-0.4,0.4-0.77,0.81-1.13,1.24
	c-0.37,0.43-0.7,0.88-1.01,1.35c-0.16,0.24-0.31,0.47-0.46,0.71c-0.29,0.48-0.56,0.98-0.81,1.49c-0.12,0.26-0.24,0.52-0.35,0.78
	c-0.11,0.26-0.21,0.52-0.31,0.79c-0.08,0.22-0.16,0.44-0.23,0.66c-0.2,0.6-0.36,1.23-0.49,1.86H18.5c-3.59,0-6.5-2.91-6.5-6.5
	v-15.77h127.82V150.06z M139.82,120.79H12V66.64c0-3.59,2.91-6.5,6.5-6.5h63.68h10.36h7h10.36h23.42c3.59,0,6.5,2.91,6.5,6.5V120.79
	z M166.28,164.08c-5.8,0-10.52-4.72-10.52-10.52c0-5.8,4.72-10.52,10.52-10.52c5.8,0,10.52,4.72,10.52,10.52
	C176.8,159.36,172.08,164.08,166.28,164.08z M188,123.86h-16.44c-0.6,0-1.17,0.15-1.66,0.42c-0.2,0.11-0.39,0.24-0.56,0.38
	c-0.09,0.07-0.17,0.15-0.25,0.23c-0.64,0.63-1.03,1.5-1.03,2.47c0,1.93,1.57,3.5,3.5,3.5H188v12.7c0,2.93-1.95,5.41-4.61,6.22
	c-0.02-0.11-0.05-0.21-0.08-0.32c-0.17-0.74-0.4-1.46-0.67-2.16c-0.06-0.18-0.14-0.36-0.21-0.54c-0.08-0.17-0.15-0.34-0.23-0.5
	c-0.07-0.17-0.15-0.33-0.23-0.49c-0.09-0.19-0.19-0.37-0.29-0.55c-0.11-0.22-0.23-0.43-0.36-0.64c-0.46-0.77-0.98-1.49-1.55-2.18
	c-0.17-0.21-0.35-0.41-0.53-0.61c-0.19-0.21-0.38-0.41-0.58-0.61c-0.2-0.2-0.4-0.39-0.61-0.58c-0.21-0.19-0.42-0.37-0.63-0.55
	c-0.4-0.34-0.83-0.66-1.27-0.96c-0.27-0.18-0.55-0.36-0.83-0.53c-0.47-0.29-0.95-0.56-1.45-0.79c-0.77-0.38-1.56-0.69-2.39-0.94
	c-0.27-0.09-0.55-0.16-0.83-0.24c-0.56-0.15-1.13-0.27-1.71-0.35c-0.29-0.04-0.58-0.08-0.87-0.11c-0.3-0.03-0.59-0.05-0.89-0.07
	c-0.3-0.02-0.6-0.03-0.9-0.03c-0.3,0-0.6,0.01-0.9,0.03c-0.3,0.02-0.59,0.04-0.89,0.07c-0.29,0.03-0.57,0.07-0.85,0.11h-0.04
	c-0.29,0.05-0.57,0.1-0.85,0.16s-0.56,0.12-0.84,0.19c-1.12,0.28-2.2,0.68-3.22,1.18c-0.25,0.13-0.51,0.26-0.75,0.39
	c-0.25,0.14-0.5,0.28-0.74,0.42c-0.24,0.15-0.47,0.3-0.71,0.46c-0.47,0.31-0.92,0.64-1.35,1.01c0,0,0,0-0.01,0
	c-0.43,0.36-0.84,0.74-1.23,1.13c-0.2,0.2-0.39,0.4-0.58,0.61s-0.37,0.42-0.55,0.63c-0.16,0.19-0.31,0.38-0.46,0.58
	c-0.19,0.25-0.37,0.51-0.55,0.77c-0.13,0.19-0.25,0.38-0.37,0.57c-0.18,0.29-0.35,0.58-0.51,0.88c-0.14,0.24-0.27,0.5-0.39,0.75
	s-0.24,0.51-0.35,0.77c-0.06,0.14-0.12,0.28-0.17,0.43c-0.09,0.22-0.17,0.44-0.25,0.67c-0.25,0.72-0.45,1.46-0.61,2.22h-2.29v-70
	h8.28v25.09c0,7.44,6.06,13.5,13.5,13.5H188V123.86z M188,111.65h-19.4c-3.58,0-6.5-2.92-6.5-6.5V80.06h1.87
	c1.49,0,2.94,0.51,4.09,1.45l17.53,14.2c1.53,1.24,2.41,3.08,2.41,5.05V111.65z"/>
</svg>
