<?xml version="1.0" encoding="utf-8"?>
<!-- Generator: Adobe Illustrator 27.6.1, SVG Export Plug-In . SVG Version: 6.00 Build 0)  -->
<svg version="1.1" id="Layer_1" xmlns="http://www.w3.org/2000/svg" xmlns:xlink="http://www.w3.org/1999/xlink" x="0px" y="0px"
	 viewBox="0 0 200 200" style="enable-background:new 0 0 200 200;" xml:space="preserve">
<g>
	<path d="M68.28,62.95h54.86c1.93,0,3.5-1.57,3.5-3.5s-1.57-3.5-3.5-3.5H68.28c-1.93,0-3.5,1.57-3.5,3.5S66.35,62.95,68.28,62.95z"
		/>
	<path d="M76.77,78.49H27.85c-1.93,0-3.5,1.57-3.5,3.5s1.57,3.5,3.5,3.5h48.93c1.93,0,3.5-1.57,3.5-3.5S78.71,78.49,76.77,78.49z"/>
	<path d="M132.04,78.49H98.5c-1.93,0-3.5,1.57-3.5,3.5s1.57,3.5,3.5,3.5h33.54c1.93,0,3.5-1.57,3.5-3.5S133.97,78.49,132.04,78.49z"
		/>
	<path d="M54.86,59.45c0-1.93-1.57-3.5-3.5-3.5H17.82c-1.93,0-3.5,1.57-3.5,3.5s1.57,3.5,3.5,3.5h33.54
		C53.29,62.95,54.86,61.38,54.86,59.45z"/>
	<path d="M190,73.17l-17.53-14.21c-2.39-1.94-5.41-3.01-8.5-3.01h-17.15V38.03c0-6.63-5.37-12-12-12H17c-6.63,0-12,5.37-12,12v89.92
		c0,6.63,5.37,12,12,12h19.36c0.13,0.63,0.29,1.26,0.49,1.86c0.06,0.19,0.13,0.38,0.2,0.57c0.14,0.41,0.3,0.81,0.48,1.2
		c0.1,0.21,0.19,0.42,0.3,0.63c0.38,0.77,0.82,1.51,1.31,2.21c0.11,0.17,0.23,0.34,0.36,0.5c0.19,0.26,0.39,0.51,0.6,0.76
		c0.15,0.18,0.31,0.36,0.47,0.54c0.19,0.21,0.38,0.41,0.58,0.61c0.05,0.05,0.09,0.09,0.14,0.14c0.35,0.35,0.71,0.68,1.09,0.99
		c0.01,0,0.01,0,0.01,0c0.43,0.35,0.87,0.69,1.33,1c0.47,0.32,0.96,0.62,1.47,0.89c0.2,0.11,0.41,0.22,0.62,0.32
		c0.55,0.28,1.12,0.52,1.7,0.73c0.27,0.1,0.54,0.19,0.82,0.28c0.22,0.07,0.45,0.14,0.69,0.2c0.18,0.05,0.35,0.09,0.52,0.13
		c0.17,0.04,0.35,0.08,0.52,0.11c0.22,0.05,0.43,0.09,0.65,0.12c0.16,0.03,0.32,0.05,0.48,0.07c0.23,0.04,0.47,0.06,0.7,0.08
		c0.09,0.01,0.17,0.02,0.26,0.02c0.2,0.02,0.39,0.03,0.59,0.04c0.26,0.01,0.53,0.02,0.79,0.02c0.26,0,0.53-0.01,0.79-0.02
		c0.2-0.01,0.39-0.02,0.59-0.04c0.09,0,0.17-0.01,0.26-0.02c0.23-0.02,0.47-0.04,0.7-0.08c0.16-0.02,0.32-0.04,0.48-0.07
		c0.22-0.03,0.43-0.07,0.65-0.12c0.17-0.03,0.35-0.07,0.52-0.11c0.17-0.04,0.34-0.08,0.52-0.13c0.24-0.06,0.47-0.13,0.69-0.2
		c0.28-0.09,0.55-0.18,0.82-0.28c0.58-0.21,1.15-0.45,1.7-0.73c0.21-0.1,0.42-0.21,0.62-0.32c0.51-0.27,1-0.57,1.47-0.89
		c0.46-0.31,0.9-0.65,1.33-1c0,0,0,0,0.01,0c0.38-0.32,0.74-0.65,1.09-0.99c0.05-0.05,0.09-0.09,0.14-0.14
		c0.2-0.2,0.39-0.4,0.58-0.61c0.16-0.18,0.32-0.36,0.47-0.54c0.21-0.25,0.41-0.5,0.6-0.76c0.13-0.16,0.25-0.33,0.36-0.5
		c0.49-0.7,0.93-1.44,1.31-2.21c0.11-0.21,0.2-0.42,0.3-0.63c0.18-0.39,0.34-0.79,0.48-1.2c0.07-0.19,0.14-0.38,0.2-0.57
		c0.2-0.6,0.36-1.23,0.49-1.86h78.41c0.16,0.76,0.36,1.5,0.61,2.22c0.08,0.23,0.16,0.45,0.25,0.67c0.05,0.15,0.11,0.29,0.17,0.43
		c0.11,0.26,0.23,0.52,0.35,0.77s0.25,0.51,0.39,0.75c0.16,0.3,0.33,0.59,0.51,0.88c0.12,0.19,0.24,0.38,0.37,0.57
		c0.18,0.26,0.36,0.52,0.55,0.77c0.15,0.2,0.3,0.39,0.46,0.58c0.18,0.21,0.36,0.42,0.55,0.63c0.19,0.21,0.38,0.41,0.58,0.61
		c0.39,0.39,0.8,0.77,1.23,1.13c0.01,0,0.01,0,0.01,0c0.44,0.36,0.89,0.7,1.35,1.01c0.21,0.14,0.43,0.28,0.64,0.42
		c0.26,0.16,0.53,0.31,0.81,0.46c0.24,0.13,0.5,0.26,0.75,0.39c0.26,0.12,0.52,0.24,0.78,0.35c0.26,0.11,0.52,0.22,0.79,0.31
		c0.27,0.1,0.54,0.19,0.82,0.28c0.22,0.07,0.45,0.14,0.69,0.2c0.17,0.05,0.35,0.09,0.52,0.13c0.17,0.04,0.35,0.08,0.52,0.11
		c0.22,0.05,0.43,0.09,0.65,0.12c0.16,0.03,0.32,0.05,0.48,0.07c0.23,0.04,0.47,0.06,0.7,0.08c0.09,0.01,0.17,0.02,0.26,0.02
		c0.2,0.02,0.39,0.03,0.59,0.04c0.26,0.01,0.53,0.02,0.79,0.02c0.26,0,0.53-0.01,0.79-0.02c0.19-0.01,0.38-0.02,0.56-0.04
		c0.37-0.02,0.73-0.06,1.08-0.11c0.17-0.02,0.34-0.05,0.51-0.08c0.21-0.03,0.41-0.07,0.62-0.12c0.21-0.04,0.42-0.08,0.62-0.14
		c0.35-0.08,0.69-0.17,1.02-0.28c0.28-0.09,0.55-0.18,0.82-0.28c0.8-0.29,1.58-0.64,2.32-1.05c0.21-0.12,0.42-0.23,0.63-0.36
		c0.29-0.17,0.56-0.34,0.84-0.54c0.22-0.15,0.45-0.31,0.66-0.47c0.23-0.17,0.45-0.34,0.67-0.52c0.43-0.36,0.84-0.73,1.24-1.13
		c0.2-0.2,0.39-0.4,0.58-0.61c0.13-0.13,0.25-0.28,0.36-0.42c0.16-0.17,0.3-0.34,0.43-0.52c0.02-0.02,0.04-0.03,0.05-0.06
		c0.15-0.19,0.29-0.37,0.43-0.57c0.66-0.9,1.23-1.88,1.69-2.91c0.08-0.16,0.15-0.32,0.22-0.48c0.08-0.18,0.15-0.36,0.22-0.55
		c0.07-0.18,0.14-0.37,0.21-0.57c0.16-0.47,0.31-0.96,0.43-1.45c0.06-0.22,0.11-0.45,0.15-0.67c0.02-0.08,0.04-0.15,0.05-0.23
		c6.51-0.96,11.52-6.57,11.52-13.34v-42.8C195,79.56,193.18,75.74,190,73.17z M53.53,146.97c-5.8,0-10.52-4.72-10.52-10.52
		c0-5.8,4.72-10.52,10.52-10.52c5.8,0,10.52,4.72,10.52,10.52C64.05,142.25,59.33,146.97,53.53,146.97z M139.82,132.95H70.7
		c-0.13-0.63-0.29-1.26-0.49-1.86c-0.07-0.22-0.15-0.44-0.23-0.66c-0.1-0.27-0.2-0.53-0.31-0.79c-0.11-0.26-0.23-0.52-0.35-0.78
		c-0.25-0.51-0.52-1.01-0.81-1.49c-0.15-0.24-0.3-0.47-0.46-0.71c-0.31-0.47-0.64-0.92-1.01-1.35c-0.36-0.43-0.73-0.84-1.13-1.24
		c-0.39-0.39-0.8-0.77-1.23-1.13c-0.01,0-0.01,0-0.01,0c-0.43-0.37-0.88-0.7-1.35-1.01c-0.24-0.16-0.47-0.31-0.71-0.46
		c-0.24-0.14-0.49-0.28-0.74-0.42c-0.24-0.13-0.5-0.26-0.75-0.39c-1.02-0.5-2.1-0.9-3.22-1.18c-0.28-0.07-0.56-0.13-0.84-0.19
		c-0.28-0.06-0.56-0.11-0.85-0.16h-0.04c-0.28-0.04-0.56-0.08-0.85-0.11c-0.3-0.03-0.59-0.05-0.89-0.07c-0.3-0.02-0.6-0.03-0.9-0.03
		c-0.3,0-0.6,0.01-0.9,0.03c-0.3,0.02-0.59,0.04-0.89,0.07c-0.29,0.03-0.57,0.07-0.85,0.11h-0.04c-0.29,0.05-0.57,0.1-0.85,0.16
		s-0.56,0.12-0.84,0.19c-1.12,0.28-2.2,0.68-3.22,1.18c-0.25,0.13-0.51,0.26-0.75,0.39c-0.25,0.14-0.5,0.28-0.74,0.42
		c-0.24,0.15-0.47,0.3-0.71,0.46c-0.47,0.31-0.92,0.64-1.35,1.01c0,0,0,0-0.01,0c-0.43,0.36-0.84,0.74-1.23,1.13
		c-0.4,0.4-0.77,0.81-1.13,1.24c-0.37,0.43-0.7,0.88-1.01,1.35c-0.16,0.24-0.31,0.47-0.46,0.71c-0.29,0.48-0.56,0.98-0.81,1.49
		c-0.12,0.26-0.24,0.52-0.35,0.78c-0.11,0.26-0.21,0.52-0.31,0.79c-0.08,0.22-0.16,0.44-0.23,0.66c-0.2,0.6-0.36,1.23-0.49,1.86
		H18.5c-3.59,0-6.5-2.91-6.5-6.5v-15.77h127.82V132.95z M139.82,103.68H12V39.53c0-3.59,2.91-6.5,6.5-6.5h114.82
		c3.59,0,6.5,2.91,6.5,6.5V103.68z M166.28,146.97c-5.8,0-10.52-4.72-10.52-10.52c0-5.8,4.72-10.52,10.52-10.52
		c5.8,0,10.52,4.72,10.52,10.52C176.8,142.25,172.08,146.97,166.28,146.97z M188,106.75h-16.44c-0.6,0-1.17,0.15-1.66,0.42
		c-0.2,0.11-0.39,0.24-0.56,0.38c-0.09,0.07-0.17,0.15-0.25,0.23c-0.64,0.63-1.03,1.5-1.03,2.47c0,1.93,1.57,3.5,3.5,3.5H188v12.7
		c0,2.93-1.95,5.41-4.61,6.22c-0.02-0.11-0.05-0.21-0.08-0.32c-0.17-0.74-0.4-1.46-0.67-2.16c-0.06-0.18-0.14-0.36-0.21-0.54
		c-0.08-0.17-0.15-0.34-0.23-0.5c-0.07-0.17-0.15-0.33-0.23-0.49c-0.09-0.19-0.19-0.37-0.29-0.55c-0.11-0.22-0.23-0.43-0.36-0.64
		c-0.46-0.77-0.98-1.49-1.55-2.18c-0.17-0.21-0.35-0.41-0.53-0.61c-0.19-0.21-0.38-0.41-0.58-0.61c-0.2-0.2-0.4-0.39-0.61-0.58
		c-0.21-0.19-0.42-0.37-0.63-0.55c-0.4-0.34-0.83-0.66-1.27-0.96c-0.27-0.18-0.55-0.36-0.83-0.53c-0.47-0.29-0.95-0.56-1.45-0.79
		c-0.77-0.38-1.56-0.69-2.39-0.94c-0.27-0.09-0.55-0.16-0.83-0.24c-0.56-0.15-1.13-0.27-1.71-0.35c-0.29-0.04-0.58-0.08-0.87-0.11
		c-0.3-0.03-0.59-0.05-0.89-0.07c-0.3-0.02-0.6-0.03-0.9-0.03c-0.3,0-0.6,0.01-0.9,0.03c-0.3,0.02-0.59,0.04-0.89,0.07
		c-0.29,0.03-0.57,0.07-0.85,0.11h-0.04c-0.29,0.05-0.57,0.1-0.85,0.16s-0.56,0.12-0.84,0.19c-1.12,0.28-2.2,0.68-3.22,1.18
		c-0.25,0.13-0.51,0.26-0.75,0.39c-0.25,0.14-0.5,0.28-0.74,0.42c-0.24,0.15-0.47,0.3-0.71,0.46c-0.47,0.31-0.92,0.64-1.35,1.01
		c0,0,0,0-0.01,0c-0.43,0.36-0.84,0.74-1.23,1.13c-0.2,0.2-0.39,0.4-0.58,0.61s-0.37,0.42-0.55,0.63c-0.16,0.19-0.31,0.38-0.46,0.58
		c-0.19,0.25-0.37,0.51-0.55,0.77c-0.13,0.19-0.25,0.38-0.37,0.57c-0.18,0.29-0.35,0.58-0.51,0.88c-0.14,0.24-0.27,0.5-0.39,0.75
		s-0.24,0.51-0.35,0.77c-0.06,0.14-0.12,0.28-0.17,0.43c-0.09,0.22-0.17,0.44-0.25,0.67c-0.25,0.72-0.45,1.46-0.61,2.22h-2.29v-70
		h8.28v25.09c0,7.44,6.06,13.5,13.5,13.5H188V106.75z M188,94.54h-19.4c-3.58,0-6.5-2.92-6.5-6.5V62.95h1.87
		c1.49,0,2.94,0.51,4.09,1.45l17.53,14.2c1.53,1.24,2.41,3.08,2.41,5.05V94.54z"/>
</g>
<g>
	<path d="M183.31,132.35c-0.17-0.74-0.4-1.46-0.67-2.16c-0.06-0.18-0.14-0.36-0.21-0.54c-0.08-0.17-0.15-0.34-0.23-0.5
		c-0.07-0.17-0.15-0.33-0.23-0.49c-0.09-0.19-0.19-0.37-0.29-0.55c-0.11-0.22-0.23-0.43-0.36-0.64c-0.46-0.77-0.98-1.49-1.55-2.18
		c-0.17-0.21-0.35-0.41-0.53-0.61c-0.19-0.21-0.38-0.41-0.58-0.61c-0.2-0.2-0.4-0.39-0.61-0.58c-0.21-0.19-0.42-0.37-0.63-0.55
		c-0.41-0.34-0.83-0.66-1.27-0.96c-0.27-0.18-0.55-0.36-0.83-0.53c-0.47-0.28-0.96-0.55-1.45-0.79c-0.77-0.37-1.56-0.68-2.39-0.94
		c-0.27-0.09-0.55-0.16-0.83-0.24c-0.56-0.14-1.13-0.26-1.71-0.35c-0.29-0.04-0.58-0.08-0.87-0.11c-0.3-0.03-0.59-0.05-0.89-0.07
		c-0.3-0.01-0.6-0.02-0.9-0.02c-0.3,0-0.6,0.01-0.9,0.02c-0.3,0.02-0.59,0.04-0.89,0.07c-0.29,0.03-0.57,0.07-0.85,0.11h-0.04
		c-0.29,0.05-0.57,0.1-0.85,0.16s-0.56,0.12-0.84,0.19c-1.12,0.29-2.2,0.69-3.22,1.18c-0.25,0.13-0.51,0.26-0.75,0.39
		c-0.25,0.14-0.5,0.28-0.74,0.42c-0.24,0.15-0.47,0.3-0.71,0.46c-0.46,0.31-0.91,0.65-1.35,1.01c0,0,0,0-0.01,0
		c-0.43,0.36-0.84,0.74-1.23,1.13c-0.2,0.2-0.39,0.4-0.58,0.61s-0.37,0.42-0.55,0.63c-0.16,0.19-0.31,0.38-0.46,0.58
		c-0.19,0.25-0.37,0.51-0.55,0.77c-0.13,0.19-0.25,0.38-0.37,0.57c-0.18,0.29-0.35,0.58-0.51,0.88c-0.14,0.24-0.27,0.5-0.39,0.75
		s-0.24,0.51-0.35,0.77c-0.06,0.14-0.12,0.28-0.17,0.43c-0.09,0.22-0.17,0.44-0.25,0.67c-0.25,0.72-0.45,1.46-0.61,2.22
		c-0.23,1.13-0.35,2.3-0.35,3.5c0,1.2,0.12,2.37,0.35,3.5c0.16,0.76,0.36,1.5,0.61,2.22c0.08,0.23,0.16,0.45,0.25,0.67
		c0.05,0.15,0.11,0.29,0.17,0.43c0.11,0.26,0.23,0.52,0.35,0.77s0.25,0.51,0.39,0.75c0.16,0.3,0.33,0.59,0.51,0.88
		c0.12,0.19,0.24,0.38,0.37,0.57c0.18,0.26,0.36,0.52,0.55,0.77c0.15,0.2,0.3,0.39,0.46,0.58c0.18,0.21,0.36,0.42,0.55,0.63
		c0.19,0.21,0.38,0.41,0.58,0.61c0.39,0.39,0.8,0.77,1.23,1.13c0.01,0,0.01,0,0.01,0c0.44,0.36,0.89,0.7,1.35,1.01
		c0.21,0.14,0.43,0.28,0.64,0.42c0.26,0.16,0.53,0.31,0.81,0.46c0.24,0.13,0.5,0.26,0.75,0.39c0.26,0.12,0.52,0.24,0.78,0.35
		c0.26,0.11,0.52,0.22,0.79,0.31c0.27,0.1,0.54,0.19,0.82,0.28c0.22,0.07,0.45,0.14,0.69,0.2c0.17,0.05,0.35,0.09,0.52,0.13
		c0.17,0.04,0.35,0.08,0.52,0.11c0.22,0.05,0.43,0.09,0.65,0.12c0.16,0.03,0.32,0.05,0.48,0.07c0.23,0.04,0.47,0.06,0.7,0.08
		c0.09,0.01,0.17,0.02,0.26,0.02c0.2,0.02,0.39,0.03,0.59,0.04c0.26,0.01,0.53,0.02,0.79,0.02c0.26,0,0.53-0.01,0.79-0.02
		c0.19-0.01,0.38-0.02,0.56-0.04c0.37-0.02,0.73-0.06,1.08-0.11c0.17-0.02,0.34-0.05,0.51-0.08c0.21-0.03,0.41-0.07,0.62-0.12
		c0.21-0.04,0.42-0.08,0.62-0.14c0.35-0.08,0.69-0.17,1.02-0.28c0.28-0.09,0.55-0.18,0.82-0.28c0.8-0.29,1.58-0.64,2.32-1.05
		c0.21-0.12,0.42-0.23,0.63-0.36c0.29-0.17,0.56-0.34,0.84-0.54c0.22-0.15,0.45-0.31,0.66-0.47c0.23-0.17,0.45-0.34,0.67-0.52
		c0.43-0.36,0.84-0.73,1.24-1.13c0.2-0.2,0.39-0.4,0.58-0.61c0.13-0.13,0.25-0.28,0.36-0.42c0.16-0.17,0.3-0.34,0.43-0.52
		c0.02-0.02,0.04-0.03,0.05-0.06c0.15-0.19,0.29-0.37,0.43-0.57c0.66-0.9,1.23-1.88,1.69-2.91c0.08-0.16,0.15-0.32,0.22-0.48
		c0.08-0.18,0.15-0.36,0.22-0.55c0.07-0.18,0.14-0.37,0.21-0.57c0.16-0.47,0.31-0.96,0.43-1.45c0.06-0.22,0.11-0.45,0.15-0.67
		c0.02-0.08,0.04-0.15,0.05-0.23c0.21-1.08,0.32-2.2,0.32-3.34C183.8,135.04,183.63,133.66,183.31,132.35z M166.28,146.97
		c-5.8,0-10.52-4.72-10.52-10.52c0-5.8,4.72-10.52,10.52-10.52c5.8,0,10.52,4.72,10.52,10.52
		C176.8,142.25,172.08,146.97,166.28,146.97z"/>
</g>
<g>
	<path d="M70.7,132.95c-0.13-0.63-0.29-1.26-0.49-1.86c-0.07-0.22-0.15-0.44-0.23-0.66c-0.1-0.27-0.2-0.53-0.31-0.79
		c-0.11-0.26-0.23-0.52-0.35-0.78c-0.25-0.51-0.52-1.01-0.81-1.49c-0.15-0.24-0.3-0.47-0.46-0.71c-0.31-0.46-0.65-0.91-1.01-1.35
		c-0.36-0.43-0.73-0.84-1.13-1.24c-0.39-0.39-0.8-0.77-1.23-1.13c-0.01,0-0.01,0-0.01,0c-0.44-0.36-0.89-0.7-1.35-1.01
		c-0.24-0.16-0.47-0.31-0.71-0.46c-0.24-0.14-0.49-0.28-0.74-0.42c-0.24-0.13-0.5-0.26-0.75-0.39c-1.02-0.49-2.1-0.89-3.22-1.18
		c-0.28-0.07-0.56-0.13-0.84-0.19c-0.28-0.06-0.56-0.11-0.85-0.16h-0.04c-0.28-0.04-0.56-0.08-0.85-0.11
		c-0.3-0.03-0.59-0.05-0.89-0.07c-0.3-0.01-0.6-0.02-0.9-0.02c-0.3,0-0.6,0.01-0.9,0.02c-0.3,0.02-0.59,0.04-0.89,0.07
		c-0.29,0.03-0.57,0.07-0.85,0.11h-0.04c-0.29,0.05-0.57,0.1-0.85,0.16s-0.56,0.12-0.84,0.19c-1.12,0.29-2.2,0.69-3.22,1.18
		c-0.25,0.13-0.51,0.26-0.75,0.39c-0.25,0.14-0.5,0.28-0.74,0.42c-0.24,0.15-0.47,0.3-0.71,0.46c-0.46,0.31-0.91,0.65-1.35,1.01
		c0,0,0,0-0.01,0c-0.43,0.36-0.84,0.74-1.23,1.13c-0.4,0.4-0.77,0.81-1.13,1.24c-0.36,0.44-0.7,0.89-1.01,1.35
		c-0.16,0.24-0.31,0.47-0.46,0.71c-0.29,0.48-0.56,0.98-0.81,1.49c-0.12,0.26-0.24,0.52-0.35,0.78c-0.11,0.26-0.21,0.52-0.31,0.79
		c-0.08,0.22-0.16,0.44-0.23,0.66c-0.2,0.6-0.36,1.23-0.49,1.86c-0.23,1.13-0.35,2.3-0.35,3.5c0,1.2,0.12,2.37,0.35,3.5
		c0.13,0.63,0.29,1.26,0.49,1.86c0.06,0.19,0.13,0.38,0.2,0.57c0.14,0.41,0.3,0.81,0.48,1.2c0.1,0.21,0.19,0.42,0.3,0.63
		c0.38,0.77,0.82,1.51,1.31,2.21c0.11,0.17,0.23,0.34,0.36,0.5c0.19,0.26,0.39,0.51,0.6,0.76c0.15,0.18,0.31,0.36,0.47,0.54
		c0.19,0.21,0.38,0.41,0.58,0.61c0.05,0.05,0.09,0.09,0.14,0.14c0.35,0.34,0.71,0.67,1.09,0.99c0.01,0,0.01,0,0.01,0
		c0.43,0.35,0.87,0.69,1.33,1c0.47,0.32,0.96,0.62,1.47,0.89c0.2,0.11,0.41,0.22,0.62,0.32c0.55,0.28,1.12,0.52,1.7,0.73
		c0.27,0.1,0.54,0.19,0.82,0.28c0.22,0.07,0.45,0.14,0.69,0.2c0.18,0.05,0.35,0.09,0.52,0.13c0.17,0.04,0.35,0.08,0.52,0.11
		c0.22,0.05,0.43,0.09,0.65,0.12c0.16,0.03,0.32,0.05,0.48,0.07c0.23,0.04,0.47,0.06,0.7,0.08c0.09,0.01,0.17,0.02,0.26,0.02
		c0.2,0.02,0.39,0.03,0.59,0.04c0.26,0.01,0.53,0.02,0.79,0.02c0.26,0,0.53-0.01,0.79-0.02c0.2-0.01,0.39-0.02,0.59-0.04
		c0.09,0,0.17-0.01,0.26-0.02c0.23-0.02,0.47-0.04,0.7-0.08c0.16-0.02,0.32-0.04,0.48-0.07c0.22-0.03,0.43-0.07,0.65-0.12
		c0.17-0.03,0.35-0.07,0.52-0.11c0.17-0.04,0.34-0.08,0.52-0.13c0.24-0.06,0.47-0.13,0.69-0.2c0.28-0.09,0.55-0.18,0.82-0.28
		c0.58-0.21,1.15-0.45,1.7-0.73c0.21-0.1,0.42-0.21,0.62-0.32c0.51-0.27,1-0.57,1.47-0.89c0.46-0.31,0.9-0.65,1.33-1c0,0,0,0,0.01,0
		c0.38-0.32,0.74-0.65,1.09-0.99c0.05-0.05,0.09-0.09,0.14-0.14c0.2-0.2,0.39-0.4,0.58-0.61c0.16-0.18,0.32-0.36,0.47-0.54
		c0.21-0.25,0.41-0.5,0.6-0.76c0.13-0.16,0.25-0.33,0.36-0.5c0.49-0.7,0.93-1.44,1.31-2.21c0.11-0.21,0.2-0.42,0.3-0.63
		c0.18-0.39,0.34-0.79,0.48-1.2c0.07-0.19,0.14-0.38,0.2-0.57c0.2-0.6,0.36-1.23,0.49-1.86c0.23-1.13,0.35-2.3,0.35-3.5
		C71.05,135.25,70.93,134.08,70.7,132.95z M53.53,146.97c-5.8,0-10.52-4.72-10.52-10.52c0-5.8,4.72-10.52,10.52-10.52
		c5.8,0,10.52,4.72,10.52,10.52C64.05,142.25,59.33,146.97,53.53,146.97z"/>
</g>
</svg>
