<?xml version="1.0" encoding="utf-8"?>
<!-- Generator: Adobe Illustrator 27.6.1, SVG Export Plug-In . SVG Version: 6.00 Build 0)  -->
<svg version="1.1" id="Layer_1" xmlns="http://www.w3.org/2000/svg" xmlns:xlink="http://www.w3.org/1999/xlink" x="0px" y="0px"
	 viewBox="0 0 200 200" style="enable-background:new 0 0 200 200;" xml:space="preserve">
<g>
	<path d="M100.42,115.62l1.66,0.89l1.66-0.89c11.31-6.09,23.55-17.42,23.98-30.92c0.19-5.92-2.09-10.7-6.26-13.12
		c-4.87-2.83-11.79-1.93-19.01,2.48c-0.23,0.14-0.52,0.14-0.75,0c-7.18-4.39-14.17-5.28-19-2.48c-4.16,2.42-6.45,7.21-6.26,13.12
		C76.88,98.2,89.12,109.53,100.42,115.62z M86.22,77.63c0.78-0.46,1.77-0.69,2.92-0.69c2.49,0,5.66,1.1,8.91,3.08
		c2.48,1.52,5.57,1.52,8.06,0c4.87-2.98,9.3-3.87,11.84-2.4c1.87,1.09,2.88,3.58,2.78,6.85c-0.21,6.64-5.25,16.31-18.64,24.05
		c-13.39-7.74-18.43-17.42-18.64-24.06C83.34,81.21,84.35,78.72,86.22,77.63z"/>
	<path d="M190,73.17l-17.53-14.21c-2.4-1.94-5.42-3.01-8.5-3.01h-17.65c-1.57-5.71-6.8-9.92-13-9.92H34.94c-1.93,0-3.5,1.57-3.5,3.5
		s1.57,3.5,3.5,3.5h98.39c3.58,0,6.5,2.92,6.5,6.5v73.43H90.7c-1.62-7.99-8.71-14.03-17.17-14.03s-15.55,6.04-17.17,14.03H30.94
		c-1.93,0-3.5,1.57-3.5,3.5s1.57,3.5,3.5,3.5h25.42c1.63,7.99,8.71,14.02,17.17,14.02s15.54-6.03,17.17-14.02h49.12h7h2.29
		c1.63,7.99,8.71,14.02,17.17,14.02c8.52,0,15.63-6.11,17.2-14.18c6.51-0.96,11.52-6.57,11.52-13.34v-42.8
		C195,79.57,193.18,75.74,190,73.17z M73.53,146.97c-5.8,0-10.52-4.72-10.52-10.52s4.72-10.52,10.52-10.52s10.52,4.72,10.52,10.52
		S79.33,146.97,73.53,146.97z M168.06,64.4l17.53,14.21c1.53,1.24,2.41,3.08,2.41,5.05v10.88h-19.4c-3.58,0-6.5-2.92-6.5-6.5V62.95
		h1.87C165.46,62.95,166.91,63.46,168.06,64.4z M166.28,146.97c-5.8,0-10.52-4.72-10.52-10.52s4.72-10.52,10.52-10.52
		s10.52,4.72,10.52,10.52S172.09,146.97,166.28,146.97z M183.39,132.67c-1.73-7.85-8.74-13.75-17.1-13.75
		c-8.47,0-15.55,6.04-17.17,14.03h-2.29v-70h8.28v25.09c0,7.44,6.06,13.5,13.5,13.5H188v5.21h-16.44c-1.93,0-3.5,1.57-3.5,3.5
		s1.57,3.5,3.5,3.5H188v12.71C188,129.38,186.05,131.86,183.39,132.67z"/>
	<path d="M25.77,78.3h37.27c1.93,0,3.5-1.57,3.5-3.5s-1.57-3.5-3.5-3.5H25.77c-1.93,0-3.5,1.57-3.5,3.5S23.84,78.3,25.77,78.3z"/>
	<path d="M67.25,92.99c0-1.93-1.57-3.5-3.5-3.5H8.5c-1.93,0-3.5,1.57-3.5,3.5s1.57,3.5,3.5,3.5h55.25
		C65.68,96.49,67.25,94.92,67.25,92.99z"/>
	<path d="M77.73,111.18c0-1.93-1.57-3.5-3.5-3.5H20.98c-1.93,0-3.5,1.57-3.5,3.5s1.57,3.5,3.5,3.5h53.25
		C76.16,114.68,77.73,113.11,77.73,111.18z"/>
	<circle cx="73.53" cy="136.45" r="4"/>
	<circle cx="166.28" cy="136.45" r="4"/>
</g>
</svg>
